<svg width="62" height="62" viewBox="0 0 62 62" fill="none" xmlns="http://www.w3.org/2000/svg">
<g clip-path="url(#clip0_3_19)">
<path d="M30.9997 62.0002C13.8789 62.0002 -0.000156403 48.1211 -0.000156403 31.0003C-0.000156403 13.8796 13.8789 0.000488281 30.9997 0.000488281C48.1204 0.000488281 61.9995 13.8796 61.9995 31.0003C61.9995 48.1211 48.1204 62.0002 30.9997 62.0002Z" fill="#2C3E50"/>
<path d="M11.9279 21.9734C11.9279 22.5089 11.9516 23.0375 11.9921 23.5624C12.0669 24.4535 12.2024 25.3241 12.3918 26.1746C12.6561 27.3569 13.0321 28.4954 13.5066 29.5796C13.9538 30.613 14.4926 31.5986 15.1091 32.5236C15.6001 33.2624 16.1425 33.9636 16.7284 34.624C16.874 34.7867 17.02 34.9459 17.169 35.1018C17.6567 35.6201 18.1753 36.1045 18.7171 36.5586C18.8561 36.6772 18.9949 36.7926 19.1372 36.9043C19.8114 37.4427 20.5262 37.9377 21.2716 38.3779C21.5019 38.517 21.7392 38.6491 21.9764 38.778C23.8874 39.8077 25.9947 40.5192 28.2239 40.8411C29.1285 40.9766 30.0571 41.0444 30.9985 41.0444C31.9268 41.0444 32.8383 40.9766 33.7293 40.8477C35.979 40.5258 38.1031 39.811 40.0275 38.778C40.3426 38.6053 40.6543 38.4287 40.9558 38.2425C41.8742 37.68 42.7379 37.043 43.5442 36.3352C43.6326 36.2604 43.7238 36.1826 43.8085 36.1015C44.4116 35.5562 44.9806 34.97 45.5092 34.3501C45.6074 34.2348 45.7056 34.1198 45.8005 34.0011C46.5966 33.0221 47.2982 31.965 47.8907 30.8403C47.9484 30.7319 48.0024 30.6235 48.0568 30.5151C48.5175 29.597 48.9073 28.6348 49.219 27.6387C49.28 27.439 49.3376 27.2389 49.3917 27.0389C49.6764 26.0088 49.8764 24.9451 49.9812 23.8511C49.998 23.6682 50.0151 23.4853 50.0287 23.2988C50.0557 22.8615 50.0728 22.418 50.0728 21.9738C50.0728 21.7062 50.0659 21.4419 50.0557 21.1776C50.0524 21.0455 50.0455 20.917 50.0352 20.7848C49.9845 19.9208 49.8728 19.0703 49.7067 18.2406C49.6695 18.0541 49.6289 17.8679 49.5881 17.6847C49.4355 17.024 49.2493 16.3735 49.0289 15.7434C48.9511 15.5131 48.8664 15.2827 48.7781 15.059C48.5105 14.3644 48.1988 13.6901 47.8531 13.0397C47.5786 12.5213 47.2804 12.0165 46.9588 11.5288C46.7522 11.2105 46.5354 10.902 46.3083 10.5972C46.0612 10.2618 45.8002 9.93652 45.529 9.62149C45.0548 9.06228 44.55 8.53405 44.0181 8.0424C43.8352 7.86973 43.6523 7.70365 43.4625 7.54119C42.7478 6.92135 41.9889 6.35523 41.1858 5.85072C40.915 5.67805 40.6405 5.51197 40.3594 5.3561C39.9527 5.12577 39.5362 4.90861 39.1091 4.70892C38.8449 4.5837 38.5773 4.46507 38.3061 4.35303C37.5067 4.02119 36.6835 3.74307 35.833 3.51966C35.4063 3.40795 34.9726 3.31304 34.532 3.23198C33.868 3.10676 33.1938 3.01515 32.5061 2.96078C32.1608 2.93376 31.8118 2.91662 31.4592 2.91003C31.3066 2.90674 31.1544 2.90344 30.9985 2.90344C30.6327 2.90344 30.2703 2.91366 29.9111 2.93409C29.6807 2.9476 29.4504 2.9644 29.2234 2.98484C28.2644 3.07315 27.3296 3.23231 26.4214 3.45935C26.2112 3.5101 26.0046 3.56447 25.7979 3.62214C24.7715 3.91344 23.7822 4.28613 22.8335 4.7366C22.5627 4.86544 22.298 4.99758 22.0338 5.13994C21.5391 5.40059 21.0617 5.6853 20.5941 5.99044C20.5127 6.04481 20.428 6.09886 20.3466 6.15323C19.6961 6.59348 19.0693 7.07458 18.4798 7.59326C18.087 7.92871 17.7143 8.28427 17.3552 8.6573C16.7927 9.22968 16.2674 9.83634 15.7863 10.4766C15.6881 10.6018 15.5932 10.7274 15.5055 10.8559C15.031 11.5133 14.601 12.1974 14.2144 12.9125C14.1433 13.0413 14.0757 13.1735 14.0115 13.302C13.3778 14.5387 12.8766 15.8499 12.524 17.222C12.3444 17.9199 12.2053 18.6314 12.1071 19.3563C11.9885 20.2118 11.9279 21.086 11.9279 21.9734Z" fill="#141720"/>
<path d="M42.6769 34.8649C42.6769 34.8817 42.6769 34.8988 42.6802 34.9156C42.697 35.5289 43.0394 36.0574 43.5442 36.3352C43.6088 36.3724 43.6731 36.4064 43.7443 36.4301C43.9341 36.5082 44.144 36.5487 44.3608 36.5487C45.2891 36.5487 46.0414 35.7935 46.0414 34.8649C46.0414 34.7057 46.0177 34.5498 45.9771 34.4009C45.9363 34.2585 45.8753 34.1231 45.8008 34.0012C45.5095 33.5135 44.974 33.1846 44.3608 33.1846C44.2086 33.1846 44.0626 33.205 43.9238 33.2423C43.707 33.2963 43.5106 33.3945 43.3409 33.5266C43.1953 33.6384 43.07 33.7705 42.9649 33.9231C42.782 34.1906 42.6769 34.5159 42.6769 34.8649Z" fill="#141720"/>
<path d="M47.288 16.7291C47.288 17.0543 47.3829 17.3595 47.5457 17.6168C47.8406 18.0946 48.3689 18.4097 48.9719 18.4097C49.2362 18.4097 49.4836 18.3487 49.7071 18.2403C49.829 18.1826 49.9407 18.1081 50.0425 18.0267C50.4152 17.7183 50.6525 17.251 50.6525 16.7291C50.6525 15.9771 50.1611 15.3434 49.4869 15.1266C49.3241 15.0722 49.1515 15.0452 48.9719 15.0452C48.9076 15.0452 48.843 15.0488 48.7788 15.059C48.0268 15.1404 47.4271 15.7197 47.3117 16.4615C47.2949 16.5495 47.288 16.6375 47.288 16.7291Z" fill="#141720"/>
<path d="M37.8626 5.49125C37.8626 5.85703 37.9812 6.1994 38.1779 6.47357C38.4083 6.79552 38.754 7.03245 39.15 7.12735C39.2756 7.158 39.4077 7.1748 39.5432 7.1748C40.3495 7.1748 41.0237 6.60901 41.1862 5.85011C41.2132 5.73477 41.2271 5.61285 41.2271 5.49092C41.2271 5.34198 41.2066 5.19962 41.1694 5.06419C40.9829 4.34252 40.3225 3.81067 39.5432 3.81067C39.3636 3.81067 39.1942 3.83769 39.0317 3.88877C38.7507 3.98005 38.5032 4.13954 38.3065 4.35274C38.032 4.65096 37.8626 5.05068 37.8626 5.49125Z" fill="#141720"/>
<path d="M22.0259 7.89444C21.097 7.89444 20.344 7.14143 20.344 6.21254C20.344 5.28365 21.097 4.53064 22.0259 4.53064C22.9548 4.53064 23.7078 5.28365 23.7078 6.21254C23.7078 7.14143 22.9548 7.89444 22.0259 7.89444Z" fill="#141720"/>
<path d="M47.6337 22.3023C47.6337 22.5159 47.6745 22.7225 47.749 22.9086C47.9929 23.5387 48.6028 23.9862 49.3175 23.9862C49.5548 23.9862 49.7786 23.9387 49.9815 23.8508C50.1206 23.7898 50.2491 23.7084 50.3677 23.6171C50.7507 23.3087 50.9978 22.8345 50.9978 22.3027C50.9978 21.7299 50.7131 21.2251 50.2761 20.9203C50.2017 20.8695 50.1203 20.8221 50.0356 20.7849C49.8188 20.6797 49.5749 20.6221 49.3172 20.6221C48.6058 20.6221 47.9958 21.0623 47.752 21.6861C47.6742 21.8753 47.6337 22.0852 47.6337 22.3023Z" fill="#141720"/>
<path d="M18.123 37.248C17.1941 37.248 16.4411 36.495 16.4411 35.5661C16.4411 34.6372 17.1941 33.8842 18.123 33.8842C19.0519 33.8842 19.8049 34.6372 19.8049 35.5661C19.8049 36.495 19.0519 37.248 18.123 37.248Z" fill="#141720"/>
<path d="M16.3929 35.2913C15.464 35.2913 14.711 34.5382 14.711 33.6094C14.711 32.6805 15.464 31.9275 16.3929 31.9275C17.3218 31.9275 18.0748 32.6805 18.0748 33.6094C18.0748 34.5382 17.3218 35.2913 16.3929 35.2913Z" fill="#141720"/>
<path d="M20.3456 38.6551C19.4167 38.6551 18.6637 37.902 18.6637 36.9732C18.6637 36.0443 19.4167 35.2913 20.3456 35.2913C21.2745 35.2913 22.0275 36.0443 22.0275 36.9732C22.0275 37.902 21.2745 38.6551 20.3456 38.6551Z" fill="#141720"/>
<path d="M29.1861 3.33974C29.1861 3.9665 29.5282 4.51219 30.0366 4.8002C30.2838 4.94255 30.5685 5.02362 30.87 5.02362C30.9142 5.02362 30.9547 5.02362 30.9989 5.0167C31.3277 4.99297 31.6292 4.87434 31.8764 4.68486C32.2863 4.38005 32.5506 3.88873 32.5506 3.33974C32.5506 3.2076 32.5371 3.08238 32.5064 2.96045C32.4185 2.56733 32.1881 2.22858 31.8764 1.99824C31.6292 1.80843 31.3277 1.6898 30.9989 1.66641C30.9547 1.65948 30.9142 1.65948 30.87 1.65948C30.294 1.65948 29.7859 1.94749 29.4843 2.38774C29.3624 2.56403 29.2708 2.76735 29.2234 2.98418C29.1996 3.09918 29.1861 3.21781 29.1861 3.33974Z" fill="#141720"/>
<path d="M14.711 13.4526C13.7822 13.4526 13.0291 12.6996 13.0291 11.7707C13.0291 10.8418 13.7822 10.0888 14.711 10.0888C15.6399 10.0888 16.3929 10.8418 16.3929 11.7707C16.3929 12.6996 15.6399 13.4526 14.711 13.4526Z" fill="#141720"/>
<path d="M43.5443 31.9275C43.5443 32.202 43.5884 32.4626 43.6731 32.7101C43.7341 32.8999 43.8187 33.0759 43.9239 33.2419C44.2728 33.8008 44.8419 34.2107 45.5095 34.3498C45.6585 34.3834 45.818 34.4006 45.9771 34.4006C45.9906 34.4038 46.0075 34.4038 46.021 34.4038C47.3898 34.4038 48.501 33.296 48.501 31.9271C48.501 31.5238 48.4028 31.1409 48.2331 30.8058C48.1823 30.7039 48.1247 30.6061 48.0568 30.5145C47.6096 29.8706 46.8642 29.4474 46.0206 29.4474C45.9495 29.4474 45.8783 29.4507 45.8074 29.4577C45.296 29.5015 44.8281 29.7015 44.4524 30.0099C43.8965 30.4637 43.5443 31.1551 43.5443 31.9275Z" fill="#141720"/>
<path d="M38.8722 35.8001C38.8722 36.8908 39.5768 37.8161 40.5561 38.1446C40.685 38.1888 40.8168 38.2224 40.9558 38.2428C41.0847 38.2666 41.2168 38.2768 41.3523 38.2768C42.5043 38.2768 43.4698 37.4941 43.7443 36.4304C43.7746 36.3256 43.7987 36.2136 43.8085 36.1019C43.8221 36.0037 43.829 35.9019 43.829 35.8004C43.829 35.116 43.5512 34.4994 43.1073 34.0523C43.0599 34.0048 43.0124 33.9606 42.965 33.9234C42.5313 33.5438 41.9688 33.3204 41.3523 33.3204C39.9834 33.32 38.8722 34.4312 38.8722 35.8001Z" fill="#141720"/>
<path d="M44.8113 13.9814C44.8113 15.3503 45.9191 16.4615 47.288 16.4615H47.3117C47.979 16.4545 48.5857 16.1837 49.0292 15.7431C49.2124 15.5668 49.368 15.3569 49.4866 15.1265C49.6662 14.7842 49.768 14.3947 49.768 13.9814C49.768 12.955 49.1412 12.0742 48.2502 11.7015C47.9556 11.5726 47.63 11.5051 47.288 11.5051C47.1763 11.5051 47.0679 11.512 46.9595 11.5288C45.8618 11.6711 44.9945 12.5315 44.8419 13.6259C44.8215 13.7409 44.8113 13.8595 44.8113 13.9814Z" fill="#141720"/>
<path d="M24.5045 7.50104C23.1358 7.50104 22.0262 6.39144 22.0262 5.02268C22.0262 3.65391 23.1358 2.54431 24.5045 2.54431C25.8733 2.54431 26.9829 3.65391 26.9829 5.02268C26.9829 6.39144 25.8733 7.50104 24.5045 7.50104Z" fill="#141720"/>
<path d="M34.163 4.52903C34.163 4.84735 34.2239 5.15249 34.3356 5.43357C34.6948 6.35493 35.5924 7.00904 36.643 7.00904C37.2223 7.00904 37.7578 6.80902 38.1779 6.47356C38.7098 6.05671 39.062 5.42665 39.1095 4.70862C39.1164 4.65095 39.1197 4.58999 39.1197 4.52903C39.1197 4.3089 39.0894 4.09207 39.0317 3.88876C38.7539 2.83164 37.7917 2.05231 36.6433 2.05231C36.2604 2.05231 35.8979 2.14062 35.576 2.29616C35.1423 2.49947 34.7798 2.82472 34.5324 3.23135C34.2984 3.60734 34.163 4.05121 34.163 4.52903Z" fill="#141720"/>
<path d="M46.041 25.2635C46.041 25.853 46.2476 26.395 46.5933 26.8185C47.0473 27.3807 47.7417 27.7398 48.521 27.7398C48.7615 27.7398 48.9988 27.7059 49.2189 27.638C49.3916 27.5906 49.561 27.5197 49.7168 27.4314C50.479 27.0113 50.9974 26.1983 50.9974 25.2631C50.9974 24.6298 50.7601 24.0534 50.3673 23.6165C50.2691 23.4979 50.1538 23.3894 50.0286 23.2982C49.6117 22.9729 49.0868 22.7831 48.521 22.7831C48.2501 22.7831 47.9924 22.8273 47.7486 22.9083C46.7593 23.2306 46.041 24.1658 46.041 25.2635Z" fill="#141720"/>
<path d="M17.8218 12.4581C16.453 12.4581 15.3434 11.3485 15.3434 9.97971C15.3434 8.61095 16.453 7.50134 17.8218 7.50134C19.1906 7.50134 20.3002 8.61095 20.3002 9.97971C20.3002 11.3485 19.1906 12.4581 17.8218 12.4581Z" fill="#141720"/>
<path d="M14.1821 17.8633C12.8132 17.8633 11.7034 16.7535 11.7034 15.3846C11.7034 14.0156 12.8132 12.9059 14.1821 12.9059C15.5511 12.9059 16.6608 14.0156 16.6608 15.3846C16.6608 16.7535 15.5511 17.8633 14.1821 17.8633Z" fill="#141720"/>
<path d="M39.1197 7.50003C39.1197 8.86889 40.2308 9.98005 41.5997 9.98005C41.7997 9.98005 41.9928 9.95632 42.179 9.90887C43.0938 9.69204 43.8121 8.96379 44.0187 8.0421C44.0596 7.86943 44.0797 7.68622 44.0797 7.50003C44.0797 7.45621 44.0797 7.41205 44.0728 7.36789C44.0085 6.06033 42.9244 5.02332 41.5997 5.02332C41.454 5.02332 41.3084 5.03683 41.1693 5.06385C40.878 5.1113 40.6035 5.21312 40.3597 5.35515C39.7194 5.72455 39.262 6.36811 39.15 7.12701C39.1296 7.24959 39.1197 7.37152 39.1197 7.50003Z" fill="#141720"/>
<path d="M45.6483 28.6309C45.6483 28.9222 45.7056 29.2033 45.8074 29.4577C46.136 30.2673 46.9324 30.84 47.8604 30.84H47.8907C48.0093 30.8367 48.121 30.8265 48.2331 30.8061C49.2767 30.6298 50.0728 29.722 50.0728 28.6309C50.0728 28.187 49.944 27.7771 49.7169 27.4314C49.6253 27.2891 49.5169 27.1573 49.3917 27.0383C48.9953 26.6521 48.4568 26.4185 47.8604 26.4185C47.3895 26.4185 46.9525 26.5677 46.5933 26.8182C46.0206 27.2182 45.6483 27.8789 45.6483 28.6309Z" fill="#141720"/>
<path d="M43.829 11.769C43.829 12.5483 44.2323 13.2324 44.8419 13.6256C45.1876 13.8526 45.6008 13.9811 46.0414 13.9811C46.7901 13.9811 47.4508 13.6084 47.8541 13.0393C48.1049 12.6802 48.2538 12.2399 48.2538 11.769C48.2538 11.7453 48.2538 11.7249 48.2506 11.7011C48.2232 10.6915 47.5118 9.85447 46.5667 9.62446C46.4006 9.58031 46.2243 9.55988 46.0414 9.55988C45.8651 9.55988 45.6924 9.58031 45.5297 9.62117C44.5744 9.84788 43.8596 10.6918 43.8323 11.7048C43.829 11.7249 43.829 11.7486 43.829 11.769Z" fill="#141720"/>
<path d="M27.9755 6.21258C26.7543 6.21258 25.7644 5.22263 25.7644 4.00146C25.7644 2.7803 26.7543 1.79034 27.9755 1.79034C29.1966 1.79034 30.1866 2.7803 30.1866 4.00146C30.1866 5.22263 29.1966 6.21258 27.9755 6.21258Z" fill="#141720"/>
<path d="M46.2885 19.6055C46.2885 19.9749 46.3765 20.3202 46.5357 20.6254C46.7897 21.1167 47.2234 21.4996 47.752 21.6858C47.9856 21.7705 48.2397 21.8179 48.5006 21.8179C49.107 21.8179 49.656 21.5741 50.0557 21.1776C50.1371 21.0966 50.2115 21.0116 50.2761 20.9203C50.5506 20.5545 50.7098 20.1004 50.7098 19.6058C50.7098 18.986 50.4557 18.4268 50.0425 18.0271C49.9071 17.8916 49.7545 17.7763 49.5887 17.6847C49.2668 17.5018 48.8974 17.3967 48.5013 17.3967C48.1589 17.3967 47.834 17.4744 47.546 17.6168C47.2343 17.7624 46.9631 17.9793 46.7532 18.2505C46.4612 18.6228 46.2885 19.0937 46.2885 19.6055Z" fill="#141720"/>
<path d="M12.726 23.689C11.505 23.689 10.5152 22.6992 10.5152 21.4782C10.5152 20.2572 11.505 19.2674 12.726 19.2674C13.947 19.2674 14.9368 20.2572 14.9368 21.4782C14.9368 22.6992 13.947 23.689 12.726 23.689Z" fill="#141720"/>
<path d="M14.1822 29.6837C12.9612 29.6837 11.9714 28.6939 11.9714 27.4729C11.9714 26.2519 12.9612 25.2621 14.1822 25.2621C15.4031 25.2621 16.3929 26.2519 16.3929 27.4729C16.3929 28.6939 15.4031 29.6837 14.1822 29.6837Z" fill="#141720"/>
<path d="M42.1484 9.55991C42.1484 9.67854 42.1586 9.79717 42.179 9.90888C42.3144 10.7897 42.9751 11.4946 43.8322 11.7045C44.0016 11.7486 44.1779 11.7687 44.3608 11.7687C45.2044 11.7687 45.9396 11.2942 46.309 10.5966C46.4681 10.3053 46.5597 9.97643 46.5667 9.62417C46.5699 9.60374 46.5699 9.58001 46.5699 9.55958C46.5699 8.33671 45.5807 7.34747 44.3608 7.34747C44.2626 7.34747 44.1677 7.35439 44.0728 7.3679C43.8596 7.39525 43.6527 7.45259 43.4628 7.54058C42.6871 7.87966 42.1484 8.65569 42.1484 9.55991Z" fill="#141720"/>
<path d="M19.4177 10.0693C18.1965 10.0693 17.2065 9.07938 17.2065 7.85821C17.2065 6.63705 18.1965 5.64709 19.4177 5.64709C20.6388 5.64709 21.6288 6.63705 21.6288 7.85821C21.6288 9.07938 20.6388 10.0693 19.4177 10.0693Z" fill="#141720"/>
<path d="M31.4187 3.33976C31.4187 3.84459 31.588 4.31219 31.876 4.68488C32.2794 5.21344 32.9127 5.5522 33.6275 5.5522C33.8749 5.5522 34.1152 5.51133 34.3356 5.43357C35.1588 5.15907 35.7618 4.41368 35.833 3.51935C35.8366 3.45839 35.8399 3.40072 35.8399 3.33976C35.8399 2.96377 35.745 2.60788 35.5756 2.29615C35.2062 1.60184 34.4711 1.13062 33.6275 1.13062C32.9127 1.13062 32.2791 1.46937 31.876 1.99793C31.6727 2.25891 31.5271 2.57064 31.4592 2.9094C31.4322 3.04846 31.4187 3.19081 31.4187 3.33976Z" fill="#141720"/>
<path d="M13.0288 65.1229V65.1265H48.9719V65.1229C48.9719 60.1392 46.9459 55.6332 43.6662 52.3808C43.5442 52.2589 43.4223 52.1402 43.2968 52.0216C42.7956 51.554 42.2703 51.1134 41.7213 50.7038C41.5519 50.5783 41.3793 50.4527 41.2063 50.3344C40.8504 50.0906 40.4846 49.857 40.1119 49.6401C39.9356 49.535 39.756 49.4332 39.5764 49.335C39.5731 49.3281 39.5662 49.3281 39.5662 49.3281C39.4205 49.2503 39.2782 49.1656 39.1358 49.0773C39.0274 49.0163 38.9226 48.9521 38.8208 48.8806C38.5091 48.6806 38.2043 48.4637 37.9163 48.2337V48.2301C36.2798 46.9258 35.0128 45.181 34.2944 43.1719C34.0269 42.4298 33.8371 41.6504 33.7286 40.8474C33.6644 40.3528 33.6304 39.8483 33.6304 39.3365L30.9979 39.35L28.3182 39.3635C28.3182 39.8651 28.2842 40.3564 28.2233 40.8405C28.1185 41.6402 27.932 42.4192 27.671 43.1577C26.9562 45.1701 25.6958 46.9219 24.063 48.2364C23.9411 48.3313 23.8191 48.4262 23.6936 48.5178C23.6936 48.5178 23.6903 48.5178 23.6867 48.5214C23.5918 48.5959 23.4936 48.6637 23.395 48.728C23.368 48.7514 23.3377 48.7722 23.3071 48.789C23.28 48.8094 23.2563 48.8262 23.2293 48.8433C23.2191 48.8503 23.2089 48.8569 23.1986 48.8638C23.0869 48.9382 22.9716 49.0094 22.8566 49.0806C22.7175 49.1653 22.5755 49.25 22.4332 49.3277C22.4094 49.3347 22.389 49.3449 22.3719 49.3584C22.2127 49.4467 22.0532 49.538 21.8977 49.6329C21.6911 49.7512 21.4877 49.8767 21.2877 50.0056C20.9322 50.2359 20.5898 50.4732 20.251 50.7305H20.2441C19.56 51.242 18.9128 51.8012 18.3098 52.4042C15.0448 55.657 13.0288 60.1494 13.0288 65.1229Z" fill="#B08874"/>
<path d="M13.0288 65.1229H48.9719C48.9719 60.1392 46.9459 55.6332 43.6662 52.3808C43.5442 52.2589 43.4223 52.1403 43.2968 52.0216C42.7956 51.554 42.2703 51.1135 41.7213 50.7039C41.5519 50.5783 41.3793 50.4528 41.2063 50.3345C40.8504 50.0906 40.4879 49.857 40.1155 49.6365C39.9392 49.5317 39.7596 49.4299 39.58 49.3317C39.5731 49.3248 39.5665 49.3281 39.5665 49.3281V49.3248C39.2785 49.1656 38.9941 48.9926 38.7196 48.8097C38.5908 48.7251 38.4656 48.6371 38.3404 48.5422C38.3269 48.5356 38.3166 48.525 38.3031 48.5184C38.2118 48.4506 38.1202 48.3794 38.0286 48.3052C37.9947 48.2779 37.9607 48.2509 37.9268 48.2238H37.9235C37.9202 48.2275 37.9202 48.2275 37.9166 48.2304C37.6998 48.4542 37.4694 48.6641 37.2322 48.8674C37.2322 48.871 37.2322 48.871 37.2289 48.871C36.6291 49.3759 35.9684 49.8095 35.257 50.1585C33.9765 50.7885 32.5364 51.1441 31.012 51.1477H30.9847C28.2743 51.1477 25.8246 50.0293 24.0633 48.2374L24.0597 48.2341L24.0564 48.2304C23.9308 48.3352 23.8023 48.4338 23.6699 48.532C23.5819 48.5998 23.4903 48.6641 23.3954 48.7287C23.3683 48.7491 23.338 48.7692 23.3074 48.7896C23.2804 48.8101 23.2566 48.8269 23.2296 48.844C23.2194 48.8509 23.2092 48.8575 23.199 48.8644C23.0873 48.9389 22.9719 49.0101 22.8569 49.0813C22.7179 49.166 22.5758 49.247 22.4335 49.3251C22.4098 49.332 22.3926 49.3455 22.3722 49.3554C22.213 49.4437 22.0502 49.535 21.8947 49.6299C21.6878 49.7519 21.4848 49.8774 21.288 50.0063C20.9325 50.233 20.5901 50.4738 20.2514 50.7276H20.2444C19.5603 51.2393 18.9132 51.8018 18.3101 52.4049C15.0448 55.657 13.0288 60.1494 13.0288 65.1229Z" fill="#EFC7A1"/>
<path d="M21.8954 49.6296L21.8987 49.6332L22.2681 50.0092C24.5922 52.3772 27.6921 53.6785 30.9988 53.6821C31.0021 53.6821 31.0021 53.6821 31.0058 53.6821C34.3498 53.6752 37.4464 52.3676 39.7603 50.0026L40.1126 49.6401L40.1158 49.6365C39.9395 49.5317 39.76 49.4299 39.5804 49.3317C39.5734 49.3248 39.5669 49.3281 39.5669 49.3281V49.3248C39.4212 49.2434 39.2788 49.162 39.1365 49.0773C39.0317 49.0131 38.9266 48.9485 38.8215 48.8806C38.7875 48.8572 38.7536 48.8331 38.7196 48.8094C38.5908 48.7247 38.4623 48.6367 38.3404 48.5418C38.3268 48.5352 38.3166 48.5247 38.3031 48.5181C38.2118 48.4469 38.1169 48.3758 38.0286 48.3049C37.9947 48.2776 37.9607 48.2505 37.9268 48.2235C37.9235 48.2271 37.9235 48.2271 37.9202 48.2301H37.9169V48.2337C37.7001 48.4571 37.473 48.6671 37.2325 48.8671C37.2325 48.8707 37.2325 48.8707 37.2292 48.8707C36.6295 49.3755 35.9688 49.8125 35.2573 50.1582C33.9768 50.7882 32.5367 51.1438 31.0124 51.1474H30.985C28.2747 51.1474 25.825 50.029 24.0636 48.237L24.06 48.2337L24.0567 48.2301C23.9381 48.3283 23.8195 48.4232 23.6939 48.5181C23.6939 48.5181 23.6906 48.5181 23.687 48.5217C23.6834 48.525 23.6768 48.5283 23.6699 48.5316C23.5819 48.5995 23.4903 48.6638 23.3954 48.7283C23.3683 48.7488 23.338 48.7689 23.3074 48.7893C23.2804 48.8097 23.2566 48.8265 23.2296 48.8437C23.2194 48.8506 23.2092 48.8572 23.199 48.8641C23.0873 48.9386 22.9719 49.0098 22.8569 49.0809C22.7179 49.1656 22.5758 49.2467 22.4335 49.3248C22.4097 49.3317 22.3926 49.3452 22.3722 49.3551C22.2134 49.4434 22.0509 49.5347 21.8954 49.6296Z" fill="#543E36"/>
<path d="M17.2062 18.5892V26.6659C17.2062 27.4248 17.2602 28.1735 17.3621 28.9087C17.6095 30.7382 18.1549 32.4764 18.9069 34.0786C19.127 34.5495 19.3643 35.0105 19.6183 35.4577C19.676 35.5595 19.7337 35.661 19.7913 35.7592C20.3064 36.6265 20.8788 37.4464 21.492 38.202C21.6479 38.3987 21.8103 38.5918 21.9764 38.778C23.7143 40.7736 25.7337 42.2947 27.6716 43.1584C28.8335 43.6734 29.972 43.9548 30.9985 43.9548C32.0184 43.9548 33.1431 43.6803 34.2951 43.1722C36.2433 42.3115 38.2761 40.7835 40.0275 38.778C40.2071 38.571 40.3834 38.3611 40.5561 38.1443C41.3453 37.162 42.067 36.0778 42.6802 34.9156C42.8295 34.6309 42.9715 34.3432 43.107 34.0516C43.1883 33.8789 43.2661 33.7026 43.3406 33.5263C43.4592 33.2587 43.5676 32.9842 43.6728 32.7097C43.998 31.8424 44.2623 30.9379 44.4521 30.0096C44.5266 29.6471 44.5908 29.281 44.6383 28.9083C44.7401 28.1732 44.7941 27.4245 44.7941 26.6656V18.5889H17.2062V18.5892Z" fill="#B08874"/>
<path d="M45.1319 28.9779C44.1196 28.9779 43.2991 28.1573 43.2991 27.145V18.3447H45.1319V28.9779Z" fill="#141720"/>
<path d="M18.7003 18.3447H16.8678V28.9782C17.8798 28.9782 18.7003 28.1577 18.7003 27.1454V18.3447Z" fill="#141720"/>
<path d="M34.4315 21.1216C33.2103 21.1216 32.2204 20.1317 32.2204 18.9105C32.2204 17.6894 33.2103 16.6994 34.4315 16.6994C35.6527 16.6994 36.6426 17.6894 36.6426 18.9105C36.6426 20.1317 35.6527 21.1216 34.4315 21.1216Z" fill="#141720"/>
<path d="M39.5441 20.6211C38.323 20.6211 37.333 19.6311 37.333 18.41C37.333 17.1888 38.323 16.1989 39.5441 16.1989C40.7653 16.1989 41.7552 17.1888 41.7552 18.41C41.7552 19.6311 40.7653 20.6211 39.5441 20.6211Z" fill="#141720"/>
<path d="M44.7932 21.4785C43.572 21.4785 42.582 20.4886 42.582 19.2674C42.582 18.0462 43.572 17.0563 44.7932 17.0563C46.0143 17.0563 47.0043 18.0462 47.0043 19.2674C47.0043 20.4886 46.0143 21.4785 44.7932 21.4785Z" fill="#141720"/>
<path d="M27.9755 20.8824C26.7543 20.8824 25.7644 19.8925 25.7644 18.6713C25.7644 17.4501 26.7543 16.4602 27.9755 16.4602C29.1966 16.4602 30.1866 17.4501 30.1866 18.6713C30.1866 19.8925 29.1966 20.8824 27.9755 20.8824Z" fill="#141720"/>
<path d="M21.29 20.8824C20.0689 20.8824 19.0789 19.8925 19.0789 18.6713C19.0789 17.4501 20.0689 16.4602 21.29 16.4602C22.5112 16.4602 23.5012 17.4501 23.5012 18.6713C23.5012 19.8925 22.5112 20.8824 21.29 20.8824Z" fill="#141720"/>
<path d="M16.7027 22.9769C15.4817 22.9769 14.4919 21.9871 14.4919 20.7661C14.4919 19.5451 15.4817 18.5553 16.7027 18.5553C17.9237 18.5553 18.9135 19.5451 18.9135 20.7661C18.9135 21.9871 17.9237 22.9769 16.7027 22.9769Z" fill="#141720"/>
<path d="M30.9999 20.7588C30.071 20.7588 29.318 20.0058 29.318 19.0769C29.318 18.148 30.071 17.395 30.9999 17.395C31.9288 17.395 32.6818 18.148 32.6818 19.0769C32.6818 20.0058 31.9288 20.7588 30.9999 20.7588Z" fill="#141720"/>
<path d="M42.3965 20.5924C41.4676 20.5924 40.7146 19.8394 40.7146 18.9105C40.7146 17.9817 41.4676 17.2286 42.3965 17.2286C43.3254 17.2286 44.0784 17.9817 44.0784 18.9105C44.0784 19.8394 43.3254 20.5924 42.3965 20.5924Z" fill="#141720"/>
<path d="M36.6427 20.5924C35.7138 20.5924 34.9608 19.8394 34.9608 18.9105C34.9608 17.9817 35.7138 17.2286 36.6427 17.2286C37.5716 17.2286 38.3246 17.9817 38.3246 18.9105C38.3246 19.8394 37.5716 20.5924 36.6427 20.5924Z" fill="#141720"/>
<path d="M24.5046 21.1213C23.5757 21.1213 22.8227 20.3683 22.8227 19.4394C22.8227 18.5105 23.5757 17.7575 24.5046 17.7575C25.4335 17.7575 26.1865 18.5105 26.1865 19.4394C26.1865 20.3683 25.4335 21.1213 24.5046 21.1213Z" fill="#141720"/>
<path d="M19.0789 21.1213C18.15 21.1213 17.397 20.3683 17.397 19.4394C17.397 18.5105 18.15 17.7575 19.0789 17.7575C20.0078 17.7575 20.7608 18.5105 20.7608 19.4394C20.7608 20.3683 20.0078 21.1213 19.0789 21.1213Z" fill="#141720"/>
<path d="M19.3913 22.7686C19.3913 22.7146 19.4322 22.6671 19.4862 22.6602C19.9538 22.589 22.0509 22.301 24.3039 22.301C26.865 22.301 30.1685 23.1037 30.7445 23.1037H31.2562C31.5238 23.1037 32.3842 22.9274 33.4855 22.7446C34.7492 22.5314 36.3283 22.3007 37.6935 22.3007C39.3435 22.3007 40.9123 22.4566 41.8133 22.565C42.1451 22.6058 42.3856 22.6394 42.5112 22.6599C42.5689 22.6668 42.6094 22.7142 42.6094 22.7683L42.6364 24.1437C42.6364 24.1945 42.6061 24.2353 42.5619 24.2554L42.4061 24.3098C42.1757 24.3978 42.1958 28.5413 40.9591 29.578C40.224 30.1879 39.5702 30.5369 36.8193 30.5369C35.2234 30.5369 34.2206 30.1065 33.2686 28.8227C32.5809 27.9013 31.9743 25.7192 31.9743 25.7192C31.7881 24.8212 31.1205 24.7501 31.0124 24.7435C31.0055 24.7435 30.9985 24.7435 30.9985 24.7435C30.9781 24.7435 30.2228 24.757 30.0261 25.7192C30.0261 25.7192 29.4162 27.901 28.7317 28.8227C27.7797 30.1065 26.777 30.5369 25.1814 30.5369C22.4302 30.5369 21.7764 30.1879 21.0416 29.578C19.8049 28.5413 19.8253 24.3978 19.5946 24.3098L19.4388 24.2554C19.3946 24.235 19.3643 24.1945 19.3643 24.1437L19.3913 22.7686Z" fill="#1A1A1A"/>
<path d="M14.4712 33.0956C13.1024 33.0956 11.9928 31.986 11.9928 30.6173C11.9928 29.2485 13.1024 28.1389 14.4712 28.1389C15.8399 28.1389 16.9495 29.2485 16.9495 30.6173C16.9495 31.986 15.8399 33.0956 14.4712 33.0956Z" fill="#141720"/>
<path d="M11.9928 20.0573C11.0639 20.0573 10.3109 19.3043 10.3109 18.3754C10.3109 17.4465 11.0639 16.6935 11.9928 16.6935C12.9217 16.6935 13.6747 17.4465 13.6747 18.3754C13.6747 19.3043 12.9217 20.0573 11.9928 20.0573Z" fill="#141720"/>
<path d="M12.3862 26.3898C11.4573 26.3898 10.7043 25.6368 10.7043 24.7079C10.7043 23.779 11.4573 23.026 12.3862 23.026C13.3151 23.026 14.0681 23.779 14.0681 24.7079C14.0681 25.6368 13.3151 26.3898 12.3862 26.3898Z" fill="#141720"/>
</g>
<defs>
<clipPath id="clip0_3_19">
<rect width="62" height="62" rx="31" transform="matrix(-1 0 0 1 62 0)" fill="white"/>
</clipPath>
</defs>
</svg>
